<?xml version="1.0" encoding="iso-8859-1"?>
<!-- Uploaded to: SVG Repo, www.svgrepo.com, Generator: SVG Repo Mixer Tools -->
<svg fill="#000000" height="800px" width="800px" version="1.1" id="Layer_1" xmlns="http://www.w3.org/2000/svg" xmlns:xlink="http://www.w3.org/1999/xlink" 
	 viewBox="0 0 512 512" xml:space="preserve">
<g>
	<g>
		<path d="M272.696,134.098V76.477h-33.391v57.621c-62.782,8.208-111.419,62.042-111.419,127.026
			c0,70.643,57.472,128.115,128.115,128.115s128.115-57.472,128.115-128.115C384.115,196.14,335.478,142.306,272.696,134.098z
			 M256,355.848c-52.231,0-94.723-42.493-94.723-94.723c0-46.532,33.736-85.307,78.028-93.22v55.03h33.391v-55.03
			c44.291,7.913,78.028,46.688,78.028,93.22C350.723,313.355,308.231,355.848,256,355.848z"/>
	</g>
</g>
<g>
	<g>
		<path d="M437.02,74.98C388.667,26.628,324.38,0,256,0S123.333,26.628,74.98,74.98C26.628,123.333,0,187.619,0,256
			s26.628,132.667,74.98,181.02C123.333,485.372,187.62,512,256,512s132.667-26.628,181.02-74.98
			C485.372,388.667,512,324.381,512,256S485.372,123.333,437.02,74.98z M256,478.609c-122.746,0-222.609-99.862-222.609-222.609
			S133.254,33.391,256,33.391S478.609,133.254,478.609,256S378.746,478.609,256,478.609z"/>
	</g>
</g>
</svg>